<svg width="30" height="30" viewBox="0 0 30 30" fill="none" xmlns="http://www.w3.org/2000/svg">
<rect width="30" height="30" fill="#F5F5F5"/>
<g id="Main_360" clip-path="url(#clip0_0_1)">
<rect width="360" height="801" transform="translate(-18 -646)" fill="white"/>
<g id="Group 47">
<g id="Group">
<path id="Vector" d="M27.5 9.41875V21.25C27.5001 22.2065 27.1346 23.1269 26.4784 23.8228C25.8222 24.5188 24.9249 24.9376 23.97 24.9937L23.75 25H6.25C5.29349 25 4.37311 24.6346 3.67717 23.9784C2.98124 23.3222 2.56237 22.4249 2.50625 21.47L2.5 21.25V9.41875L14.3062 17.29L14.4513 17.3725C14.6221 17.456 14.8098 17.4994 15 17.4994C15.1902 17.4994 15.3779 17.456 15.5487 17.3725L15.6938 17.29L27.5 9.41875Z" fill="#232524"/>
<path id="Vector_2" d="M23.7504 5C25.1004 5 26.2841 5.7125 26.9441 6.78375L15.0004 14.7463L3.05664 6.78375C3.37005 6.27471 3.80066 5.848 4.31253 5.53923C4.82439 5.23046 5.40268 5.04857 5.99914 5.00875L6.25039 5H23.7504Z" fill="#232524"/>
</g>
</g>
</g>
<defs>
<clipPath id="clip0_0_1">
<rect width="360" height="801" fill="white" transform="translate(-18 -646)"/>
</clipPath>
</defs>
</svg>
