<svg width="19" height="31" viewBox="0 0 19 31" fill="none" xmlns="http://www.w3.org/2000/svg">
<path id="Vector" d="M0 4.20996C0 3.2154 0.395088 2.26157 1.09835 1.55831C1.80161 0.855049 2.75544 0.459961 3.75 0.459961L15 0.459961C15.9946 0.459961 16.9484 0.855049 17.6516 1.55831C18.3549 2.26157 18.75 3.2154 18.75 4.20996V26.71C18.75 27.7045 18.3549 28.6583 17.6516 29.3616C16.9484 30.0649 15.9946 30.46 15 30.46H3.75C2.75544 30.46 1.80161 30.0649 1.09835 29.3616C0.395088 28.6583 0 27.7045 0 26.71V4.20996ZM11.25 24.835C11.25 24.3377 11.0525 23.8608 10.7008 23.5091C10.3492 23.1575 9.87228 22.96 9.375 22.96C8.87772 22.96 8.40081 23.1575 8.04918 23.5091C7.69754 23.8608 7.5 24.3377 7.5 24.835C7.5 25.3322 7.69754 25.8092 8.04918 26.1608C8.40081 26.5124 8.87772 26.71 9.375 26.71C9.87228 26.71 10.3492 26.5124 10.7008 26.1608C11.0525 25.8092 11.25 25.3322 11.25 24.835Z" fill="white"/>
</svg>
