<svg width="358" height="262" viewBox="0 0 358 262" fill="none" xmlns="http://www.w3.org/2000/svg">
<g filter="url(#filter0_dd_630_845)">
<path d="M77.9275 180.945C62.5027 180.945 50 168.45 50 153.035L50 73.9107C50 58.4952 62.5027 46 77.9275 46L279.772 46C295.197 46 307.7 58.4952 307.7 73.9107V180.945L77.9275 180.945Z" fill="white"/>
<path d="M82.1424 76.4949H100.751L115.989 119.582L132.385 76.4949H143.767L159.864 119.097L175.117 76.4949H193.845L166.194 152.228H154.147L137.99 109.074L121.347 152.228H109.435L82.1424 76.4949Z" fill="#34D186"/>
<path d="M280.535 119.858H219.456C220.338 125.243 222.692 129.523 226.526 132.697C230.352 135.879 235.239 137.462 241.188 137.462C248.295 137.462 254.393 134.983 259.505 130.016L275.52 137.537C271.529 143.198 266.747 147.388 261.171 150.099C255.596 152.818 248.983 154.17 241.323 154.17C229.433 154.17 219.755 150.421 212.282 142.929C204.808 135.438 201.072 126.05 201.072 114.772C201.072 103.218 204.801 93.6207 212.252 85.9877C219.702 78.3546 229.044 74.5381 240.284 74.5381C252.219 74.5381 261.919 78.3546 269.4 85.9877C276.873 93.6207 280.609 103.704 280.609 116.229L280.535 119.858ZM261.523 104.899C260.267 100.679 257.794 97.2431 254.094 94.5991C250.395 91.9552 246.105 90.6332 241.225 90.6332C235.927 90.6332 231.271 92.1195 227.273 95.0846C224.762 96.9443 222.438 100.216 220.293 104.899L261.523 104.899Z" fill="#34D186"/>
<path d="M297.843 190.072C300.264 190.072 302.334 190.946 304.068 192.701C305.802 194.449 306.661 196.57 306.661 199.064C306.661 201.522 305.802 203.62 304.09 205.353C302.379 207.086 300.331 207.952 297.947 207.952C295.496 207.952 293.404 207.071 291.67 205.301C289.936 203.531 289.077 201.387 289.077 198.863C289.077 196.435 289.929 194.367 291.647 192.649C293.359 190.931 295.421 190.072 297.843 190.072Z" fill="white"/>
</g>
<defs>
<filter id="filter0_dd_630_845" x="0" y="0" width="357.7" height="261.952" filterUnits="userSpaceOnUse" color-interpolation-filters="sRGB">
<feFlood flood-opacity="0" result="BackgroundImageFix"/>
<feColorMatrix in="SourceAlpha" type="matrix" values="0 0 0 0 0 0 0 0 0 0 0 0 0 0 0 0 0 0 127 0" result="hardAlpha"/>
<feOffset dy="4"/>
<feGaussianBlur stdDeviation="25"/>
<feComposite in2="hardAlpha" operator="out"/>
<feColorMatrix type="matrix" values="0 0 0 0 0.0554217 0 0 0 0 0.244578 0 0 0 0 0.154217 0 0 0 0.1 0"/>
<feBlend mode="normal" in2="BackgroundImageFix" result="effect1_dropShadow_630_845"/>
<feColorMatrix in="SourceAlpha" type="matrix" values="0 0 0 0 0 0 0 0 0 0 0 0 0 0 0 0 0 0 127 0" result="hardAlpha"/>
<feOffset/>
<feGaussianBlur stdDeviation="7.5"/>
<feComposite in2="hardAlpha" operator="out"/>
<feColorMatrix type="matrix" values="0 0 0 0 0.0554217 0 0 0 0 0.244578 0 0 0 0 0.154217 0 0 0 0.05 0"/>
<feBlend mode="normal" in2="effect1_dropShadow_630_845" result="effect2_dropShadow_630_845"/>
<feBlend mode="normal" in="SourceGraphic" in2="effect2_dropShadow_630_845" result="shape"/>
</filter>
</defs>
</svg>
