<svg width="359" height="263" viewBox="0 0 359 263" fill="none" xmlns="http://www.w3.org/2000/svg">
<g filter="url(#filter0_dd_305_2960)">
<path d="M78.4951 181.535C63.0704 181.535 50.5676 169.04 50.5676 153.624L50.5676 74.5003C50.5676 59.0848 63.0704 46.5896 78.4951 46.5896L280.34 46.5896C295.765 46.5896 308.268 59.0848 308.268 74.5003V181.535L78.4951 181.535Z" fill="#34D186"/>
<path d="M82.7101 77.0845H101.318L116.556 120.172L132.953 77.0845H144.334L160.432 119.686L175.685 77.0845H194.413L166.762 152.818H154.715L138.558 109.663L121.915 152.818H110.002L82.7101 77.0845Z" fill="white"/>
<path d="M281.102 120.448H220.023C220.905 125.833 223.259 130.113 227.093 133.287C230.919 136.468 235.807 138.052 241.756 138.052C248.863 138.052 254.961 135.572 260.073 130.606L276.088 138.127C272.097 143.788 267.314 147.978 261.739 150.689C256.164 153.408 249.55 154.759 241.89 154.759C230 154.759 220.322 151.01 212.849 143.519C205.376 136.028 201.639 126.64 201.639 115.362C201.639 103.808 205.368 94.2103 212.819 86.5773C220.27 78.9442 229.612 75.1277 240.851 75.1277C252.786 75.1277 262.486 78.9442 269.967 86.5773C277.44 94.2103 281.177 104.293 281.177 116.818L281.102 120.448ZM262.09 105.488C260.835 101.268 258.361 97.8327 254.662 95.1887C250.963 92.5448 246.673 91.2228 241.793 91.2228C236.494 91.2228 231.839 92.7091 227.84 95.6742C225.329 97.5339 223.005 100.805 220.86 105.488L262.09 105.488Z" fill="white"/>
<path d="M298.41 190.662C300.832 190.662 302.902 191.536 304.636 193.291C306.369 195.038 307.229 197.16 307.229 199.654C307.229 202.111 306.369 204.21 304.658 205.943C302.947 207.676 300.899 208.542 298.515 208.542C296.064 208.542 293.971 207.661 292.237 205.89C290.504 204.12 289.644 201.977 289.644 199.452C289.644 197.025 290.496 194.956 292.215 193.238C293.926 191.521 295.989 190.662 298.41 190.662Z" fill="#34D186"/>
</g>
<defs>
<filter id="filter0_dd_305_2960" x="0.567627" y="0.5896" width="357.7" height="261.952" filterUnits="userSpaceOnUse" color-interpolation-filters="sRGB">
<feFlood flood-opacity="0" result="BackgroundImageFix"/>
<feColorMatrix in="SourceAlpha" type="matrix" values="0 0 0 0 0 0 0 0 0 0 0 0 0 0 0 0 0 0 127 0" result="hardAlpha"/>
<feOffset dy="4"/>
<feGaussianBlur stdDeviation="25"/>
<feComposite in2="hardAlpha" operator="out"/>
<feColorMatrix type="matrix" values="0 0 0 0 0.0554217 0 0 0 0 0.244578 0 0 0 0 0.154217 0 0 0 0.1 0"/>
<feBlend mode="normal" in2="BackgroundImageFix" result="effect1_dropShadow_305_2960"/>
<feColorMatrix in="SourceAlpha" type="matrix" values="0 0 0 0 0 0 0 0 0 0 0 0 0 0 0 0 0 0 127 0" result="hardAlpha"/>
<feOffset/>
<feGaussianBlur stdDeviation="7.5"/>
<feComposite in2="hardAlpha" operator="out"/>
<feColorMatrix type="matrix" values="0 0 0 0 0.0554217 0 0 0 0 0.244578 0 0 0 0 0.154217 0 0 0 0.05 0"/>
<feBlend mode="normal" in2="effect1_dropShadow_305_2960" result="effect2_dropShadow_305_2960"/>
<feBlend mode="normal" in="SourceGraphic" in2="effect2_dropShadow_305_2960" result="shape"/>
</filter>
</defs>
</svg>
