<svg width="180" height="115" fill="none" xmlns="http://www.w3.org/2000/svg"><g filter="url(#a)"><path d="M19.507 95.143C8.733 95.143 0 86.416 0 75.648V20.381C0 9.613 8.733.886 19.507.886h140.986C171.267.886 180 9.613 180 20.38v74.762H19.507z" fill="#fff"/><path d="M22.451 22.186H35.45l10.643 30.096 11.453-30.096h7.95l11.244 29.757 10.654-29.757h13.081L81.16 75.085h-8.415L61.46 44.942 49.835 75.085h-8.32L22.45 22.186zM161.025 52.475h-42.662c.616 3.761 2.26 6.75 4.938 8.968 2.672 2.222 6.086 3.328 10.241 3.328 4.965 0 9.224-1.732 12.794-5.201l11.187 5.253c-2.788 3.955-6.128 6.881-10.023 8.775-3.894 1.899-8.513 2.843-13.864 2.843-8.305 0-15.065-2.619-20.285-7.851-5.219-5.233-7.829-11.79-7.829-19.668 0-8.07 2.604-14.774 7.809-20.105 5.204-5.332 11.729-7.998 19.58-7.998 8.336 0 15.111 2.666 20.337 7.998 5.22 5.331 7.83 12.374 7.83 21.123l-.053 2.535zm-13.279-10.45c-.877-2.947-2.605-5.347-5.189-7.193-2.584-1.847-5.58-2.77-8.989-2.77-3.701 0-6.953 1.038-9.745 3.109-1.754 1.299-3.378 3.584-4.876 6.855h28.799z" fill="#34D186"/><path d="M173.115 101.518c1.691 0 3.137.611 4.348 1.837 1.211 1.22 1.811 2.702 1.811 4.444 0 1.717-.6 3.183-1.795 4.393-1.196 1.21-2.626 1.815-4.291 1.815-1.712 0-3.174-.615-4.385-1.852-1.211-1.236-1.811-2.733-1.811-4.497 0-1.695.595-3.14 1.795-4.34 1.196-1.2 2.637-1.8 4.328-1.8z" fill="#fff"/></g><defs><filter id="a" x="0" y=".886" width="180" height="113.122" filterUnits="userSpaceOnUse" color-interpolation-filters="sRGB"><feFlood flood-opacity="0" result="BackgroundImageFix"/><feBlend in="SourceGraphic" in2="BackgroundImageFix" result="shape"/><feColorMatrix in="SourceAlpha" values="0 0 0 0 0 0 0 0 0 0 0 0 0 0 0 0 0 0 127 0" result="hardAlpha"/><feOffset/><feGaussianBlur stdDeviation="4.5"/><feComposite in2="hardAlpha" operator="arithmetic" k2="-1" k3="1"/><feColorMatrix values="0 0 0 0 0.0554217 0 0 0 0 0.244578 0 0 0 0 0.154217 0 0 0 0.15 0"/><feBlend in2="shape" result="effect1_innerShadow_349_1409"/><feColorMatrix in="SourceAlpha" values="0 0 0 0 0 0 0 0 0 0 0 0 0 0 0 0 0 0 127 0" result="hardAlpha"/><feOffset/><feGaussianBlur stdDeviation="8"/><feComposite in2="hardAlpha" operator="arithmetic" k2="-1" k3="1"/><feColorMatrix values="0 0 0 0 0.0554217 0 0 0 0 0.244578 0 0 0 0 0.154217 0 0 0 0.1 0"/><feBlend in2="effect1_innerShadow_349_1409" result="effect2_innerShadow_349_1409"/></filter></defs></svg>