<svg width="258" height="162" viewBox="0 0 258 162" fill="none" xmlns="http://www.w3.org/2000/svg">
<path d="M27.9275 134.945C12.5027 134.945 0 122.45 0 107.035L0 27.9107C0 12.4952 12.5027 0 27.9275 0L229.772 0C245.197 0 257.7 12.4952 257.7 27.9107V134.945H27.9275Z" fill="#34D186"/>
<path d="M32.1424 30.4949L50.7508 30.4949L65.9888 73.5821L82.3851 30.4949H93.7668L109.864 73.0966L125.117 30.4949H143.845L116.194 106.228H104.147L87.99 63.0736L71.3471 106.228H59.4347L32.1424 30.4949Z" fill="white"/>
<path d="M230.535 73.8584H169.456C170.338 79.2434 172.692 83.523 176.526 86.6972C180.352 89.8789 185.239 91.4623 191.188 91.4623C198.295 91.4623 204.393 88.9826 209.505 84.0159L225.52 91.5369C221.529 97.1983 216.747 101.388 211.171 104.099C205.596 106.818 198.983 108.17 191.323 108.17C179.433 108.17 169.755 104.421 162.282 96.9294C154.808 89.4382 151.072 80.05 151.072 68.7722C151.072 57.2181 154.801 47.6207 162.252 39.9877C169.702 32.3546 179.044 28.5381 190.284 28.5381C202.219 28.5381 211.919 32.3546 219.4 39.9877C226.873 47.6207 230.609 57.7035 230.609 70.2286L230.535 73.8584ZM211.523 58.8985C210.267 54.6787 207.794 51.2431 204.094 48.5991C200.395 45.9552 196.105 44.6332 191.225 44.6332C185.927 44.6332 181.271 46.1195 177.273 49.0846C174.762 50.9443 172.438 54.2156 170.293 58.8985H211.523Z" fill="white"/>
<path d="M247.843 144.072C250.264 144.072 252.334 144.946 254.068 146.701C255.802 148.449 256.661 150.57 256.661 153.064C256.661 155.522 255.802 157.62 254.09 159.353C252.379 161.086 250.331 161.952 247.947 161.952C245.496 161.952 243.404 161.071 241.67 159.301C239.936 157.531 239.077 155.387 239.077 152.863C239.077 150.435 239.929 148.367 241.647 146.649C243.359 144.931 245.421 144.072 247.843 144.072Z" fill="#34D186"/>
</svg>
