<svg width="257" height="206" viewBox="0 0 257 206" fill="none" xmlns="http://www.w3.org/2000/svg">
<g id="Icon" filter="url(#filter0_di_414_1224)">
<g id="Icon_2">
<path d="M74.7544 127.293C66.6053 127.293 60 120.691 60 112.547V70.7455C60 62.6013 66.6053 56 74.7544 56H181.391C189.54 56 196.145 62.6013 196.145 70.7455V127.293H74.7544Z" fill="white"/>
<path d="M76.9811 72.1107H86.8121L94.8625 94.8741L103.525 72.1107H109.538L118.042 94.6176L126.1 72.1107H135.995L121.386 112.121H115.022L106.486 89.3223L97.6933 112.121H91.3999L76.9811 72.1107Z" fill="#34D186"/>
<path d="M181.794 95.0201H149.525C149.991 97.865 151.235 100.126 153.26 101.803C155.281 103.484 157.864 104.32 161.006 104.32C164.761 104.32 167.983 103.01 170.683 100.386L179.144 104.36C177.036 107.351 174.509 109.564 171.564 110.997C168.618 112.433 165.124 113.147 161.077 113.147C154.796 113.147 149.683 111.166 145.735 107.209C141.787 103.251 139.812 98.2912 139.812 92.333C139.812 86.2288 141.783 81.1585 145.719 77.1258C149.655 73.0932 154.591 71.0769 160.529 71.0769C166.834 71.0769 171.959 73.0932 175.911 77.1258C179.859 81.1585 181.833 86.4853 181.833 93.1024L181.794 95.0201ZM171.749 87.1166C171.086 84.8872 169.779 83.0722 167.825 81.6754C165.871 80.2785 163.604 79.5801 161.026 79.5801C158.227 79.5801 155.767 80.3654 153.655 81.9318C152.328 82.9143 151.1 84.6426 149.967 87.1166H171.749Z" fill="#34D186"/>
<path d="M190.938 132.115C192.217 132.115 193.31 132.576 194.226 133.504C195.142 134.427 195.596 135.547 195.596 136.865C195.596 138.164 195.142 139.272 194.238 140.188C193.334 141.103 192.252 141.561 190.993 141.561C189.698 141.561 188.592 141.095 187.676 140.16C186.76 139.225 186.306 138.092 186.306 136.759C186.306 135.476 186.756 134.383 187.664 133.476C188.569 132.568 189.658 132.115 190.938 132.115Z" fill="white"/>
</g>
</g>
<defs>
<filter id="filter0_di_414_1224" x="0" y="0" width="256.146" height="205.561" filterUnits="userSpaceOnUse" color-interpolation-filters="sRGB">
<feFlood flood-opacity="0" result="BackgroundImageFix"/>
<feColorMatrix in="SourceAlpha" type="matrix" values="0 0 0 0 0 0 0 0 0 0 0 0 0 0 0 0 0 0 127 0" result="hardAlpha"/>
<feOffset dy="4"/>
<feGaussianBlur stdDeviation="30"/>
<feComposite in2="hardAlpha" operator="out"/>
<feColorMatrix type="matrix" values="0 0 0 0 0 0 0 0 0 0 0 0 0 0 0 0 0 0 0.1 0"/>
<feBlend mode="normal" in2="BackgroundImageFix" result="effect1_dropShadow_414_1224"/>
<feBlend mode="normal" in="SourceGraphic" in2="effect1_dropShadow_414_1224" result="shape"/>
<feColorMatrix in="SourceAlpha" type="matrix" values="0 0 0 0 0 0 0 0 0 0 0 0 0 0 0 0 0 0 127 0" result="hardAlpha"/>
<feOffset/>
<feGaussianBlur stdDeviation="1"/>
<feComposite in2="hardAlpha" operator="arithmetic" k2="-1" k3="1"/>
<feColorMatrix type="matrix" values="0 0 0 0 0.0554217 0 0 0 0 0.244578 0 0 0 0 0.154217 0 0 0 0.25 0"/>
<feBlend mode="normal" in2="shape" result="effect2_innerShadow_414_1224"/>
</filter>
</defs>
</svg>
